<svg width="30" height="30" viewBox="0 0 30 30" fill="none" xmlns="http://www.w3.org/2000/svg">
<path fill-rule="evenodd" clip-rule="evenodd" d="M3.125 15C3.125 14.6548 3.40482 14.375 3.75 14.375H26.25C26.5952 14.375 26.875 14.6548 26.875 15C26.875 15.3452 26.5952 15.625 26.25 15.625H3.75C3.40482 15.625 3.125 15.3452 3.125 15Z" fill="#414141"/>
<path fill-rule="evenodd" clip-rule="evenodd" d="M3.125 7.5C3.125 7.15482 3.40482 6.875 3.75 6.875H26.25C26.5952 6.875 26.875 7.15482 26.875 7.5C26.875 7.84518 26.5952 8.125 26.25 8.125H3.75C3.40482 8.125 3.125 7.84518 3.125 7.5Z" fill="#414141"/>
<path fill-rule="evenodd" clip-rule="evenodd" d="M3.125 22.5C3.125 22.1548 3.40482 21.875 3.75 21.875H26.25C26.5952 21.875 26.875 22.1548 26.875 22.5C26.875 22.8452 26.5952 23.125 26.25 23.125H3.75C3.40482 23.125 3.125 22.8452 3.125 22.5Z" fill="#414141"/>
</svg>
