<svg width="30" height="30" viewBox="0 0 30 30" fill="none" xmlns="http://www.w3.org/2000/svg">
<path fill-rule="evenodd" clip-rule="evenodd" d="M6.875 26.25C6.875 24.5241 8.27411 23.125 10 23.125C11.7259 23.125 13.125 24.5241 13.125 26.25C13.125 27.9759 11.7259 29.375 10 29.375C8.27411 29.375 6.875 27.9759 6.875 26.25ZM10 24.375C8.96447 24.375 8.125 25.2145 8.125 26.25C8.125 27.2855 8.96447 28.125 10 28.125C11.0355 28.125 11.875 27.2855 11.875 26.25C11.875 25.2145 11.0355 24.375 10 24.375Z" fill="#414141"/>
<path fill-rule="evenodd" clip-rule="evenodd" d="M21.875 26.25C21.875 24.5241 23.2741 23.125 25 23.125C26.7259 23.125 28.125 24.5241 28.125 26.25C28.125 27.9759 26.7259 29.375 25 29.375C23.2741 29.375 21.875 27.9759 21.875 26.25ZM25 24.375C23.9645 24.375 23.125 25.2145 23.125 26.25C23.125 27.2855 23.9645 28.125 25 28.125C26.0355 28.125 26.875 27.2855 26.875 26.25C26.875 25.2145 26.0355 24.375 25 24.375Z" fill="#414141"/>
<path fill-rule="evenodd" clip-rule="evenodd" d="M1.25 0.625C0.904822 0.625 0.625 0.904822 0.625 1.25C0.625 1.59518 0.904822 1.875 1.25 1.875H5.72564C6.67229 7.23934 7.62916 12.5804 8.43664 17.9636C8.6661 19.4933 9.9802 20.625 11.5271 20.625H24.1996C25.6892 20.625 26.9718 19.5736 27.2639 18.1129L29.0629 9.11772C29.295 7.95748 28.4076 6.875 27.2243 6.875H8.95058C8.57188 6.875 8.22247 6.98627 7.93045 7.17616L6.86549 1.14138C6.81278 0.842723 6.55328 0.625 6.25 0.625H1.25ZM8.33249 8.84271C8.27581 8.46484 8.56847 8.125 8.95058 8.125H27.2243C27.6187 8.125 27.9146 8.48583 27.8372 8.87257L26.0382 17.8677C25.8629 18.7441 25.0934 19.375 24.1996 19.375H11.5271C10.5989 19.375 9.81049 18.696 9.67281 17.7781L8.33249 8.84271Z" fill="#414141"/>
</svg>
