<svg width="30" height="30" viewBox="0 0 30 30" fill="none" xmlns="http://www.w3.org/2000/svg">
<path fill-rule="evenodd" clip-rule="evenodd" d="M14.1657 2.37221C14.1655 2.37233 14.1659 2.3721 14.1657 2.37221L4.16707 7.37152L4.16569 7.37221C3.52861 7.68878 3.12556 8.33862 3.12506 9.05V20.9544C3.1201 21.6667 3.51927 22.3204 4.1552 22.6413C4.15556 22.6415 4.15483 22.6411 4.1552 22.6413L14.1546 27.641C14.6827 27.9053 15.3047 27.9054 15.8329 27.6411L25.8331 22.641L25.8344 22.6403C26.4716 22.3237 26.8747 21.6737 26.8751 20.9622V9.05034C26.8747 8.33883 26.4716 7.68883 25.8344 7.37221L25.8331 7.37152L15.8344 2.37221C15.8342 2.37209 15.8347 2.37233 15.8344 2.37221C15.3092 2.1115 14.6909 2.1115 14.1657 2.37221ZM13.6094 1.2528C14.4854 0.817508 15.5147 0.817508 16.3907 1.2528L16.3921 1.25349L26.3907 6.2528C26.3909 6.2529 26.3905 6.2527 26.3907 6.2528C27.4523 6.78061 28.1244 7.86405 28.1251 9.04967V20.9625C28.1244 22.148 27.453 23.2314 26.3915 23.7593C26.3912 23.7594 26.3918 23.7592 26.3915 23.7593L16.3922 28.7589C16.3922 28.759 16.3923 28.7589 16.3922 28.7589C15.5121 29.1993 14.4757 29.1994 13.5956 28.759C13.5955 28.759 13.5956 28.7591 13.5956 28.759L3.59555 23.759L3.59383 23.7582C2.53356 23.2239 1.86767 22.135 1.87506 20.9479V9.05C1.87569 7.86443 2.54715 6.78101 3.60868 6.25317C3.60893 6.25305 3.60843 6.2533 3.60868 6.25317L13.6081 1.25349L13.6094 1.2528Z" fill="#414141"/>
<path fill-rule="evenodd" clip-rule="evenodd" d="M2.34102 7.42052C2.49539 7.11178 2.87081 6.98664 3.17955 7.14101L15 13.0513L26.8205 7.14101C27.1293 6.98664 27.5047 7.11178 27.6591 7.42052C27.8134 7.72926 27.6883 8.10468 27.3795 8.25904L15.2795 14.309C15.1036 14.397 14.8965 14.397 14.7205 14.309L2.62053 8.25904C2.31179 8.10468 2.18665 7.72926 2.34102 7.42052Z" fill="#414141"/>
<path fill-rule="evenodd" clip-rule="evenodd" d="M15 13.125C15.3452 13.125 15.625 13.4048 15.625 13.75V28.45C15.625 28.7952 15.3452 29.075 15 29.075C14.6548 29.075 14.375 28.7952 14.375 28.45V13.75C14.375 13.4048 14.6548 13.125 15 13.125Z" fill="#414141"/>
<path fill-rule="evenodd" clip-rule="evenodd" d="M8.191 4.09551C8.34537 3.78677 8.72079 3.66163 9.02952 3.816L21.5295 10.066C21.8383 10.2204 21.9634 10.5958 21.809 10.9045C21.6547 11.2133 21.2792 11.3384 20.9705 11.184L8.47051 4.93403C8.16177 4.77966 8.03663 4.40424 8.191 4.09551Z" fill="#414141"/>
</svg>
