<svg width="30" height="26" viewBox="0 0 30 26" fill="none" xmlns="http://www.w3.org/2000/svg">
<path fill-rule="evenodd" clip-rule="evenodd" d="M15.9672 2.37705C17.5085 0.855089 19.5993 0 21.7795 0C23.9596 0 26.0504 0.855047 27.5916 2.37694C29.1335 3.89824 30 5.96215 30 8.11402C30 10.2659 29.1337 12.3297 27.5918 13.851C27.5917 13.851 27.5918 13.851 27.5918 13.851L15.4839 25.802C15.2164 26.066 14.7828 26.066 14.5154 25.802L2.40752 13.851C-0.802506 10.6826 -0.802505 5.54549 2.40752 2.37705C5.61754 -0.791387 10.822 -0.791387 14.032 2.37705L14.9996 3.33212L15.9672 2.37705C15.9673 2.37702 15.9672 2.37709 15.9672 2.37705ZM21.7795 1.35193C19.9626 1.35193 18.2203 2.06453 16.9358 3.3329L15.4839 4.76605C15.3555 4.89282 15.1813 4.96404 14.9996 4.96404C14.818 4.96404 14.6438 4.89282 14.5154 4.76605L13.0635 3.33301C10.3884 0.692529 6.05115 0.692529 3.37602 3.33301C0.700885 5.97349 0.700885 10.2546 3.37602 12.895L14.9996 24.3681L26.6232 12.895C27.9083 11.6273 28.6303 9.90734 28.6303 8.11402C28.6303 6.32071 27.9084 4.60089 26.6234 3.33312C25.339 2.06476 23.5963 1.35193 21.7795 1.35193Z" fill="#414141"/>
</svg>
