<svg width="24" height="24" viewBox="0 0 24 24" fill="none" xmlns="http://www.w3.org/2000/svg">
<path fill-rule="evenodd" clip-rule="evenodd" d="M2 13C2 12.4478 2.23564 12 2.52632 12H21.4737C21.7643 12 22 12.4478 22 13C22 13.5522 21.7643 14 21.4737 14H2.52632C2.23564 14 2 13.5522 2 13Z" fill="white"/>
<path fill-rule="evenodd" clip-rule="evenodd" d="M2 7C2 6.44772 2.23564 6 2.52632 6H21.4737C21.7643 6 22 6.44772 22 7C22 7.55228 21.7643 8 21.4737 8H2.52632C2.23564 8 2 7.55228 2 7Z" fill="white"/>
<path fill-rule="evenodd" clip-rule="evenodd" d="M2 19C2 18.4478 2.23564 18 2.52632 18H21.4737C21.7643 18 22 18.4478 22 19C22 19.5522 21.7643 20 21.4737 20H2.52632C2.23564 20 2 19.5522 2 19Z" fill="white"/>
</svg>
