<svg width="28" height="28" viewBox="0 0 28 28" fill="none" xmlns="http://www.w3.org/2000/svg">
<path fill-rule="evenodd" clip-rule="evenodd" d="M2.91669 12.25C2.91669 7.09536 7.09536 2.91669 12.25 2.91669C17.4047 2.91669 21.5834 7.09536 21.5834 12.25C21.5834 17.4047 17.4047 21.5834 12.25 21.5834C7.09536 21.5834 2.91669 17.4047 2.91669 12.25ZM12.25 4.08335C7.73969 4.08335 4.08335 7.73969 4.08335 12.25C4.08335 16.7603 7.73969 20.4167 12.25 20.4167C16.7603 20.4167 20.4167 16.7603 20.4167 12.25C20.4167 7.73969 16.7603 4.08335 12.25 4.08335Z" fill="#414141"/>
<path fill-rule="evenodd" clip-rule="evenodd" d="M18.0208 18.0208C18.2486 17.793 18.618 17.793 18.8458 18.0208L24.9125 24.0875C25.1403 24.3153 25.1403 24.6846 24.9125 24.9125C24.6846 25.1403 24.3153 25.1403 24.0875 24.9125L18.0208 18.8458C17.793 18.618 17.793 18.2486 18.0208 18.0208Z" fill="#414141"/>
</svg>
